<svg width="93" height="86" viewBox="0 0 93 86" fill="none" xmlns="http://www.w3.org/2000/svg">
<path d="M22 8L22 71" stroke="black" stroke-linecap="round"/>
<path d="M49.8265 7.43537C49.81 7.25308 49.7362 7.11139 49.6053 7.0103C49.476 6.90755 49.2913 6.85618 49.051 6.85618C48.8919 6.85618 48.7593 6.87689 48.6532 6.91832C48.5472 6.95975 48.4676 7.01693 48.4146 7.08984C48.3616 7.1611 48.3342 7.24313 48.3326 7.33594C48.3292 7.41217 48.3442 7.47928 48.3773 7.53729C48.4121 7.59529 48.4618 7.64666 48.5265 7.69141C48.5927 7.73449 48.6723 7.77261 48.7651 7.80575C48.8579 7.8389 48.9623 7.8679 49.0783 7.89276L49.5158 7.99219C49.7677 8.04688 49.9898 8.11979 50.182 8.21094C50.3759 8.30208 50.5383 8.41063 50.6692 8.53658C50.8018 8.66252 50.902 8.80753 50.97 8.97159C51.0379 9.13565 51.0727 9.3196 51.0744 9.52344C51.0727 9.84493 50.9915 10.1209 50.8308 10.3512C50.67 10.5816 50.4389 10.758 50.1373 10.8807C49.8373 11.0033 49.4752 11.0646 49.051 11.0646C48.6251 11.0646 48.2538 11.0008 47.9373 10.8732C47.6208 10.7456 47.3747 10.5517 47.199 10.2915C47.0234 10.0314 46.9331 9.70241 46.9281 9.30469H48.1064C48.1163 9.46875 48.1602 9.60547 48.2381 9.71484C48.316 9.82422 48.4229 9.90708 48.5588 9.96342C48.6963 10.0198 48.8554 10.0479 49.036 10.0479C49.2018 10.0479 49.3426 10.0256 49.4586 9.98082C49.5763 9.93608 49.6666 9.87393 49.7296 9.79439C49.7926 9.71484 49.8249 9.6237 49.8265 9.52095C49.8249 9.42483 49.795 9.3428 49.737 9.27486C49.679 9.20526 49.5895 9.1456 49.4686 9.09588C49.3493 9.04451 49.1968 8.99728 49.0112 8.95419L48.4792 8.8299C48.0384 8.72881 47.6912 8.56558 47.4377 8.3402C47.1841 8.11316 47.0582 7.80658 47.0598 7.42045C47.0582 7.10559 47.1427 6.82966 47.3134 6.59268C47.4841 6.35571 47.7202 6.17093 48.0218 6.03835C48.3234 5.90578 48.6673 5.83949 49.0534 5.83949C49.4479 5.83949 49.7901 5.9066 50.0801 6.04084C50.3717 6.17341 50.598 6.35985 50.7587 6.60014C50.9194 6.84044 51.0015 7.11884 51.0048 7.43537H49.8265ZM47.7863 19H46.4639L48.1816 13.9091H49.8197L51.5374 19H50.2149L49.0193 15.1918H48.9795L47.7863 19ZM47.6098 16.9964H50.374V17.9311H47.6098V16.9964ZM51.1648 21.9091V27H50.1208L48.0949 24.0618H48.0625V27H46.8321V21.9091H47.891L49.8946 24.8423H49.9368V21.9091H51.1648ZM48.7104 35H46.8287V29.9091H48.7079C49.2266 29.9091 49.6732 30.011 50.0478 30.2148C50.4239 30.417 50.714 30.7087 50.9178 31.0898C51.1216 31.4693 51.2235 31.9234 51.2235 32.4521C51.2235 32.9824 51.1216 33.4381 50.9178 33.8192C50.7156 34.2004 50.4264 34.4929 50.0502 34.6967C49.6741 34.8989 49.2275 35 48.7104 35ZM48.0591 33.951H48.6632C48.9482 33.951 49.1893 33.9029 49.3865 33.8068C49.5854 33.709 49.7354 33.5508 49.8365 33.332C49.9392 33.1116 49.9906 32.8183 49.9906 32.4521C49.9906 32.0858 49.9392 31.7942 49.8365 31.5771C49.7337 31.3583 49.5821 31.2009 49.3816 31.1048C49.1827 31.007 48.9374 30.9581 48.6458 30.9581H48.0591V33.951ZM47.1021 43V37.9091H49.2051C49.5862 37.9091 49.9152 37.9837 50.1919 38.1328C50.4703 38.2803 50.685 38.4866 50.8358 38.7518C50.9866 39.0153 51.062 39.3219 51.062 39.6715C51.062 40.0228 50.9849 40.3303 50.8308 40.5938C50.6783 40.8556 50.4604 41.0586 50.177 41.2028C49.8936 41.3469 49.5572 41.419 49.1678 41.419H47.8702V40.4496H48.9391C49.1247 40.4496 49.2797 40.4173 49.4039 40.3526C49.5299 40.288 49.6252 40.1977 49.6898 40.0817C49.7544 39.964 49.7868 39.8273 49.7868 39.6715C49.7868 39.5141 49.7544 39.3782 49.6898 39.2638C49.6252 39.1478 49.5299 39.0584 49.4039 38.9954C49.278 38.9324 49.123 38.9009 48.9391 38.9009H48.3326V43H47.1021ZM49.6143 45.9091V51H48.3838V45.9091H49.6143ZM47.1021 59V53.9091H49.2051C49.5862 53.9091 49.9152 53.9837 50.1919 54.1328C50.4703 54.2803 50.685 54.4866 50.8358 54.7518C50.9866 55.0153 51.062 55.3219 51.062 55.6715C51.062 56.0228 50.9849 56.3303 50.8308 56.5938C50.6783 56.8556 50.4604 57.0586 50.177 57.2028C49.8936 57.3469 49.5572 57.419 49.1678 57.419H47.8702V56.4496H48.9391C49.1247 56.4496 49.2797 56.4173 49.4039 56.3526C49.5299 56.288 49.6252 56.1977 49.6898 56.0817C49.7544 55.964 49.7868 55.8273 49.7868 55.6715C49.7868 55.5141 49.7544 55.3782 49.6898 55.2638C49.6252 55.1478 49.5299 55.0584 49.4039 54.9954C49.278 54.9324 49.123 54.9009 48.9391 54.9009H48.3326V59H47.1021ZM47.2251 67V61.9091H50.7749V62.9084H48.4556V63.9524H50.5934V64.9542H48.4556V66.0007H50.7749V67H47.2251ZM47.0679 75V69.9091H49.1709C49.5521 69.9091 49.881 69.9779 50.1578 70.1154C50.4362 70.2513 50.6508 70.4469 50.8016 70.7021C50.9524 70.9556 51.0278 71.2564 51.0278 71.6044C51.0278 71.9574 50.9507 72.2573 50.7966 72.5043C50.6425 72.7495 50.4237 72.9368 50.1404 73.0661C49.857 73.1937 49.5214 73.2575 49.1336 73.2575H47.8037V72.288H48.9049C49.0905 72.288 49.2455 72.264 49.3698 72.2159C49.4957 72.1662 49.591 72.0916 49.6556 71.9922C49.7203 71.8911 49.7526 71.7618 49.7526 71.6044C49.7526 71.447 49.7203 71.3169 49.6556 71.2141C49.591 71.1097 49.4957 71.0318 49.3698 70.9805C49.2438 70.9274 49.0889 70.9009 48.9049 70.9009H48.2984V75H47.0679ZM49.934 72.6733L51.2018 75H49.8595L48.6166 72.6733H49.934Z" fill="#122620"/>
<path d="M47.3303 82V77.6364H48.3849V81.1435H50.2003V82H47.3303ZM51.801 77.6364V82H50.7463V77.6364H51.801ZM52.4631 82V77.6364H54.2827C54.6094 77.6364 54.8828 77.6825 55.103 77.7749C55.3246 77.8672 55.4908 77.9964 55.6016 78.1626C55.7138 78.3288 55.7699 78.5213 55.7699 78.7401C55.7699 78.9062 55.7351 79.0547 55.6655 79.1854C55.5959 79.3146 55.5 79.4219 55.3778 79.5071C55.2557 79.5923 55.1143 79.652 54.9538 79.6861V79.7287C55.13 79.7372 55.2926 79.7848 55.4418 79.8714C55.5923 79.9581 55.7131 80.0788 55.804 80.2337C55.8949 80.3871 55.9403 80.5689 55.9403 80.7791C55.9403 81.0135 55.8807 81.223 55.7614 81.4077C55.642 81.5909 55.4695 81.7358 55.2436 81.8423C55.0178 81.9474 54.7436 82 54.4212 82H52.4631ZM53.5178 81.1499H54.1697C54.3984 81.1499 54.5668 81.1065 54.6747 81.0199C54.7841 80.9332 54.8388 80.8125 54.8388 80.6577C54.8388 80.5455 54.8125 80.4489 54.7599 80.3679C54.7074 80.2855 54.6328 80.2223 54.5362 80.1783C54.4396 80.1328 54.3239 80.1101 54.1889 80.1101H53.5178V81.1499ZM53.5178 79.4304H54.1016C54.2166 79.4304 54.3189 79.4112 54.4084 79.3729C54.4979 79.3345 54.5675 79.2791 54.6172 79.2067C54.6683 79.1342 54.6939 79.0469 54.6939 78.9446C54.6939 78.7983 54.642 78.6832 54.5384 78.5994C54.4347 78.5156 54.2947 78.4737 54.1186 78.4737H53.5178V79.4304ZM56.4474 82V77.6364H58.25C58.5767 77.6364 58.8587 77.6953 59.0959 77.8132C59.3345 77.9297 59.5185 78.0973 59.6477 78.3161C59.777 78.5334 59.8416 78.7912 59.8416 79.0895C59.8416 79.392 59.7756 79.6491 59.6435 79.8608C59.5114 80.071 59.3239 80.2315 59.081 80.3423C58.8381 80.4517 58.5504 80.5064 58.218 80.5064H57.0781V79.6754H58.022C58.1811 79.6754 58.3139 79.6548 58.4205 79.6136C58.5284 79.571 58.6101 79.5071 58.6655 79.4219C58.7209 79.3352 58.7486 79.2244 58.7486 79.0895C58.7486 78.9545 58.7209 78.843 58.6655 78.755C58.6101 78.6655 58.5284 78.5987 58.4205 78.5547C58.3125 78.5092 58.1797 78.4865 58.022 78.4865H57.5021V82H56.4474ZM58.9041 80.0057L59.9908 82H58.8402L57.7749 80.0057H58.9041ZM61.364 82H60.2305L61.7028 77.6364H63.1069L64.5792 82H63.4457L62.4208 78.7358H62.3867L61.364 82ZM61.2127 80.2827H63.582V81.0838H61.2127V80.2827ZM65.049 82V77.6364H66.8516C67.1783 77.6364 67.4602 77.6953 67.6974 77.8132C67.9361 77.9297 68.12 78.0973 68.2493 78.3161C68.3786 78.5334 68.4432 78.7912 68.4432 79.0895C68.4432 79.392 68.3771 79.6491 68.245 79.8608C68.1129 80.071 67.9254 80.2315 67.6825 80.3423C67.4396 80.4517 67.152 80.5064 66.8196 80.5064H65.6797V79.6754H66.6236C66.7827 79.6754 66.9155 79.6548 67.022 79.6136C67.13 79.571 67.2116 79.5071 67.267 79.4219C67.3224 79.3352 67.3501 79.2244 67.3501 79.0895C67.3501 78.9545 67.3224 78.843 67.267 78.755C67.2116 78.6655 67.13 78.5987 67.022 78.5547C66.9141 78.5092 66.7813 78.4865 66.6236 78.4865H66.1037V82H65.049ZM67.5057 80.0057L68.5923 82H67.4418L66.3764 80.0057H67.5057ZM68.611 77.6364H69.7892L70.7118 79.4624H70.7502L71.6728 77.6364H72.851L71.2551 80.5426V82H70.2069V80.5426L68.611 77.6364Z" fill="black"/>
<rect x="1" y="4" width="20" height="71" rx="4" fill="#B68D40" stroke="#D6AD60" stroke-width="2"/>
<line x1="2.5" y1="65.5" x2="19.5" y2="65.5" stroke="black" stroke-linecap="round"/>
<line x1="2.5" y1="12.5" x2="19.5" y2="12.5" stroke="black" stroke-linecap="round"/>
<ellipse cx="11" cy="38.5" rx="4" ry="11.5" fill="#D6AD60"/>
<rect x="52.2374" y="6.76351" width="20" height="71" rx="4" transform="rotate(-16.0399 52.2374 6.76351)" fill="#B68D40" stroke="#D6AD60" stroke-width="2"/>
<line x1="70.6718" y1="65.4548" x2="87.01" y2="60.7576" stroke="black" stroke-linecap="round"/>
<line x1="56.0276" y1="14.5181" x2="72.3658" y2="9.82093" stroke="black" stroke-linecap="round"/>
<ellipse cx="71.3806" cy="37.1573" rx="4" ry="11.5" transform="rotate(-16.0399 71.3806 37.1573)" fill="#D6AD60"/>
<rect x="23" y="4" width="20" height="71" rx="4" fill="#B68D40" stroke="#D6AD60" stroke-width="2"/>
<line x1="24.5" y1="65.5" x2="41.5" y2="65.5" stroke="black" stroke-linecap="round"/>
<line x1="24.5" y1="12.5" x2="41.5" y2="12.5" stroke="black" stroke-linecap="round"/>
<ellipse cx="33" cy="38.5" rx="4" ry="11.5" fill="#D6AD60"/>
</svg>
