<svg width="120" height="98" viewBox="0 0 120 98" fill="none" xmlns="http://www.w3.org/2000/svg">
<rect width="120" height="98" fill="#F4EBD0"/>
<path d="M37 16L37 79" stroke="black" stroke-linecap="round"/>
<path d="M64.0199 19.084C63.7772 19.084 63.5439 19.0513 63.3199 18.986C63.0959 18.916 62.8952 18.8203 62.7179 18.699V17.852C62.8392 18.1647 63.0235 18.4027 63.2709 18.566C63.5229 18.7247 63.7842 18.804 64.0549 18.804C64.3255 18.804 64.5519 18.7153 64.7339 18.538C64.9159 18.356 65.0069 18.132 65.0069 17.866C65.0069 17.6887 64.9695 17.537 64.8949 17.411C64.8249 17.285 64.7105 17.1683 64.5519 17.061C64.3932 16.949 64.1692 16.8253 63.8799 16.69C63.4739 16.5033 63.1775 16.3097 62.9909 16.109C62.8089 15.9037 62.7179 15.6563 62.7179 15.367C62.7179 15.1197 62.7762 14.9003 62.8929 14.709C63.0142 14.513 63.1752 14.3637 63.3759 14.261C63.5812 14.1537 63.8052 14.1 64.0479 14.1C64.2579 14.1 64.4632 14.1303 64.6639 14.191C64.8645 14.247 65.0512 14.3287 65.2239 14.436V15.192C65.1119 14.9353 64.9415 14.737 64.7129 14.597C64.4889 14.4523 64.2602 14.38 64.0269 14.38C63.7609 14.38 63.5462 14.4663 63.3829 14.639C63.2195 14.8117 63.1379 15.017 63.1379 15.255C63.1379 15.4277 63.1869 15.577 63.2849 15.703C63.3829 15.8243 63.5019 15.927 63.6419 16.011C63.7865 16.095 63.9872 16.1977 64.2439 16.319C64.5052 16.445 64.7199 16.5617 64.8879 16.669C65.0559 16.7763 65.1959 16.9163 65.3079 17.089C65.4199 17.2617 65.4759 17.4717 65.4759 17.719C65.4759 17.999 65.4082 18.2417 65.2729 18.447C65.1422 18.6523 64.9649 18.811 64.7409 18.923C64.5215 19.0303 64.2812 19.084 64.0199 19.084ZM63.0673 25.131L62.6193 26.244C62.5493 26.4167 62.5143 26.559 62.5143 26.671C62.5143 26.825 62.5843 26.9347 62.7243 27H61.7233C61.77 27 61.8377 26.9533 61.9263 26.86C62.015 26.7667 62.1177 26.5823 62.2343 26.307L64.0613 21.96L65.8743 26.328C65.977 26.58 66.075 26.7527 66.1683 26.846C66.2663 26.9393 66.3433 26.9907 66.3993 27H65.2373C65.354 26.944 65.4123 26.8577 65.4123 26.741C65.4123 26.643 65.375 26.503 65.3003 26.321L64.8103 25.131H63.0673ZM64.6983 24.844L63.9353 22.975L63.1863 24.844H64.6983ZM66.3037 30.184C66.2384 30.198 66.173 30.2517 66.1077 30.345C66.047 30.4337 66.0167 30.5923 66.0167 30.821V35.196L62.4327 31.017V34.37C62.4327 34.594 62.4724 34.7527 62.5517 34.846C62.631 34.9347 62.708 34.986 62.7827 35H61.7957C61.861 34.986 61.9264 34.9347 61.9917 34.846C62.0617 34.7527 62.0967 34.5917 62.0967 34.363V30.863C62.0967 30.7043 62.043 30.5597 61.9357 30.429C61.8284 30.2983 61.693 30.2167 61.5297 30.184H62.3977L65.6807 34.013V30.821C65.6807 30.4617 65.5594 30.2493 65.3167 30.184H66.3037ZM65.1265 42.608C64.6878 42.8693 64.1022 43 63.3695 43H61.9905C61.9905 43.014 62.0185 43.0023 62.0745 42.965C62.1305 42.923 62.1795 42.8483 62.2215 42.741C62.2682 42.6337 62.2915 42.4773 62.2915 42.272V38.828C62.2915 38.646 62.2682 38.5083 62.2215 38.415C62.1795 38.317 62.1305 38.2517 62.0745 38.219C62.0185 38.1863 61.9905 38.1747 61.9905 38.184H63.3625C64.0765 38.184 64.6412 38.3007 65.0565 38.534C65.4252 38.7393 65.7098 39.017 65.9105 39.367C66.1112 39.717 66.2115 40.1113 66.2115 40.55C66.2115 41.026 66.1158 41.439 65.9245 41.789C65.7378 42.1343 65.4718 42.4073 65.1265 42.608ZM64.8535 38.849C64.6482 38.7137 64.4288 38.6157 64.1955 38.555C63.9622 38.4943 63.6845 38.464 63.3625 38.464H62.7955V42.72H63.3625C63.7452 42.72 64.0578 42.6873 64.3005 42.622C64.5478 42.5567 64.7602 42.4563 64.9375 42.321C65.1662 42.1437 65.3412 41.9127 65.4625 41.628C65.5885 41.3387 65.6515 41.0027 65.6515 40.62C65.6515 40.214 65.5792 39.8593 65.4345 39.556C65.2945 39.248 65.1008 39.0123 64.8535 38.849ZM65.6945 47.486C65.6945 47.7567 65.6292 47.9993 65.4985 48.214C65.3725 48.424 65.1905 48.5897 64.9525 48.711C64.7145 48.8323 64.4345 48.893 64.1125 48.893C63.9165 48.893 63.7065 48.872 63.4825 48.83V50.356C63.4825 50.538 63.5059 50.678 63.5525 50.776C63.5992 50.8693 63.6505 50.9323 63.7065 50.965C63.7625 50.9977 63.7905 51.0093 63.7905 51H62.6775C62.6775 51.0093 62.7055 50.9977 62.7615 50.965C62.8175 50.9323 62.8665 50.8693 62.9085 50.776C62.9552 50.6827 62.9785 50.5427 62.9785 50.356V46.849C62.9785 46.6623 62.9552 46.52 62.9085 46.422C62.8665 46.324 62.8175 46.2587 62.7615 46.226C62.7055 46.1887 62.6775 46.1747 62.6775 46.184H64.0495C64.2875 46.184 64.4835 46.2003 64.6375 46.233C64.7915 46.261 64.9269 46.3053 65.0435 46.366C65.2535 46.4733 65.4145 46.6297 65.5265 46.835C65.6385 47.0357 65.6945 47.2527 65.6945 47.486ZM65.1555 47.577C65.1555 47.2457 65.0529 46.9773 64.8475 46.772C64.6422 46.5667 64.3692 46.464 64.0285 46.464H63.4825V48.557C63.6832 48.5943 63.8932 48.613 64.1125 48.613C64.4392 48.613 64.6935 48.5197 64.8755 48.333C65.0622 48.1417 65.1555 47.8897 65.1555 47.577ZM63.4977 59C63.4977 59.014 63.5257 59.0047 63.5817 58.972C63.6377 58.9347 63.689 58.8693 63.7357 58.776C63.7823 58.678 63.8057 58.5357 63.8057 58.349V54.835C63.8057 54.6483 63.7823 54.5083 63.7357 54.415C63.6937 54.317 63.6447 54.2517 63.5887 54.219C63.5327 54.1863 63.5047 54.1747 63.5047 54.184H64.6177C64.6177 54.1747 64.5897 54.1863 64.5337 54.219C64.4777 54.2517 64.4263 54.317 64.3797 54.415C64.333 54.5083 64.3097 54.6483 64.3097 54.835V58.349C64.3097 58.5357 64.333 58.678 64.3797 58.776C64.4263 58.8693 64.4777 58.9323 64.5337 58.965C64.5897 58.9977 64.6177 59.0093 64.6177 59H63.4977ZM65.6945 63.486C65.6945 63.7567 65.6292 63.9993 65.4985 64.214C65.3725 64.424 65.1905 64.5897 64.9525 64.711C64.7145 64.8323 64.4345 64.893 64.1125 64.893C63.9165 64.893 63.7065 64.872 63.4825 64.83V66.356C63.4825 66.538 63.5059 66.678 63.5525 66.776C63.5992 66.8693 63.6505 66.9323 63.7065 66.965C63.7625 66.9977 63.7905 67.0093 63.7905 67H62.6775C62.6775 67.0093 62.7055 66.9977 62.7615 66.965C62.8175 66.9323 62.8665 66.8693 62.9085 66.776C62.9552 66.6827 62.9785 66.5427 62.9785 66.356V62.849C62.9785 62.6623 62.9552 62.52 62.9085 62.422C62.8665 62.324 62.8175 62.2587 62.7615 62.226C62.7055 62.1887 62.6775 62.1747 62.6775 62.184H64.0495C64.2875 62.184 64.4835 62.2003 64.6375 62.233C64.7915 62.261 64.9269 62.3053 65.0435 62.366C65.2535 62.4733 65.4145 62.6297 65.5265 62.835C65.6385 63.0357 65.6945 63.2527 65.6945 63.486ZM65.1555 63.577C65.1555 63.2457 65.0529 62.9773 64.8475 62.772C64.6422 62.5667 64.3692 62.464 64.0285 62.464H63.4825V64.557C63.6832 64.5943 63.8932 64.613 64.1125 64.613C64.4392 64.613 64.6935 64.5197 64.8755 64.333C65.0622 64.1417 65.1555 63.8897 65.1555 63.577ZM62.7459 75C62.7459 75.014 62.7739 75.0047 62.8299 74.972C62.8859 74.9347 62.9349 74.8647 62.9769 74.762C63.0235 74.6547 63.0469 74.5007 63.0469 74.3V70.863C63.0469 70.6717 63.0235 70.527 62.9769 70.429C62.9349 70.3263 62.8859 70.2563 62.8299 70.219C62.7739 70.1817 62.7459 70.17 62.7459 70.184H65.2799V70.884C65.1959 70.604 64.9439 70.464 64.5239 70.464H63.5509V72.452H64.7549C64.8482 72.452 64.9275 72.438 64.9929 72.41C65.0582 72.3773 65.1072 72.3447 65.1399 72.312C65.1725 72.2793 65.1912 72.2583 65.1959 72.249V72.928C65.1912 72.9187 65.1725 72.8977 65.1399 72.865C65.1072 72.8323 65.0582 72.802 64.9929 72.774C64.9322 72.746 64.8552 72.732 64.7619 72.732H63.5509V74.72H64.6429C64.8529 74.72 65.0325 74.678 65.1819 74.594C65.3359 74.5053 65.4455 74.3933 65.5109 74.258L65.3849 75H62.7459ZM63.8316 80.578C64.0463 80.578 64.2329 80.529 64.3916 80.431C64.5503 80.3283 64.6693 80.1977 64.7486 80.039C64.8326 79.8757 64.8746 79.7053 64.8746 79.528C64.8746 79.346 64.8349 79.1757 64.7556 79.017C64.6809 78.8537 64.5643 78.7207 64.4056 78.618C64.2469 78.5153 64.0533 78.464 63.8246 78.464H63.2296V82.356C63.2296 82.5427 63.2529 82.685 63.2996 82.783C63.3463 82.8763 63.3976 82.9393 63.4536 82.972C63.5096 83 63.5376 83.0093 63.5376 83H62.4246C62.4246 83.0093 62.4526 82.9977 62.5086 82.965C62.5646 82.9323 62.6136 82.8693 62.6556 82.776C62.7023 82.6827 62.7256 82.5427 62.7256 82.356V78.856C62.7256 78.6647 62.7023 78.52 62.6556 78.422C62.6136 78.3193 62.5646 78.2517 62.5086 78.219C62.4526 78.1817 62.4246 78.17 62.4246 78.184H63.8106C64.1746 78.184 64.4733 78.2447 64.7066 78.366C64.9446 78.4827 65.1149 78.6367 65.2176 78.828C65.3249 79.0147 65.3786 79.22 65.3786 79.444C65.3786 79.6307 65.3343 79.815 65.2456 79.997C65.1569 80.1743 65.0286 80.3307 64.8606 80.466C64.6973 80.5967 64.5059 80.6877 64.2866 80.739L64.1746 80.76L65.4066 82.328C65.5699 82.51 65.7053 82.65 65.8126 82.748C65.9199 82.846 65.9969 82.9113 66.0436 82.944C66.0949 82.9767 66.1253 82.9953 66.1346 83H65.3156L63.4116 80.578H63.8316Z" fill="#122620"/>
<path d="M67.896 84.835C67.896 84.6483 67.8727 84.5083 67.826 84.415C67.784 84.317 67.735 84.2517 67.679 84.219C67.623 84.1863 67.595 84.1747 67.595 84.184H68.708C68.708 84.1747 68.68 84.1863 68.624 84.219C68.568 84.2517 68.5167 84.317 68.47 84.415C68.4233 84.5083 68.4 84.6483 68.4 84.835V88.72H69.548C69.758 88.72 69.9377 88.678 70.087 88.594C70.241 88.5053 70.3507 88.3933 70.416 88.258L70.29 89H67.595C67.595 89.014 67.623 89.0047 67.679 88.972C67.735 88.9347 67.784 88.8647 67.826 88.762C67.8727 88.6547 67.896 88.5007 67.896 88.3V84.835ZM71.129 89C71.129 89.014 71.157 89.0047 71.213 88.972C71.269 88.9347 71.3203 88.8693 71.367 88.776C71.4137 88.678 71.437 88.5357 71.437 88.349V84.835C71.437 84.6483 71.4137 84.5083 71.367 84.415C71.325 84.317 71.276 84.2517 71.22 84.219C71.164 84.1863 71.136 84.1747 71.136 84.184H72.249C72.249 84.1747 72.221 84.1863 72.165 84.219C72.109 84.2517 72.0577 84.317 72.011 84.415C71.9643 84.5083 71.941 84.6483 71.941 84.835V88.349C71.941 88.5357 71.9643 88.678 72.011 88.776C72.0577 88.8693 72.109 88.9323 72.165 88.965C72.221 88.9977 72.249 89.0093 72.249 89H71.129ZM75.5357 88.881C75.4143 88.923 75.2743 88.9533 75.1157 88.972C74.9617 88.9907 74.747 89 74.4717 89H73.3167C73.3773 88.986 73.4427 88.9347 73.5127 88.846C73.5827 88.7527 73.6177 88.5753 73.6177 88.314V84.849C73.6177 84.6063 73.585 84.4407 73.5197 84.352C73.4543 84.2587 73.389 84.2027 73.3237 84.184H74.4717C74.7703 84.184 74.9967 84.198 75.1507 84.226C75.3093 84.2493 75.447 84.2867 75.5637 84.338C75.769 84.436 75.9277 84.5737 76.0397 84.751C76.1517 84.9283 76.2077 85.1197 76.2077 85.325C76.2077 85.6377 76.112 85.9083 75.9207 86.137C75.734 86.361 75.4867 86.5057 75.1787 86.571C75.3887 86.5943 75.587 86.655 75.7737 86.753C75.965 86.851 76.119 86.984 76.2357 87.152C76.357 87.32 76.4177 87.5113 76.4177 87.726C76.4177 88.0247 76.3383 88.2697 76.1797 88.461C76.021 88.6477 75.8063 88.7877 75.5357 88.881ZM75.3397 84.674C75.2463 84.604 75.146 84.5527 75.0387 84.52C74.9313 84.4827 74.7867 84.464 74.6047 84.464H74.1217V86.452H74.6887C74.8567 86.452 74.9967 86.4263 75.1087 86.375C75.2207 86.3237 75.3187 86.256 75.4027 86.172C75.4913 86.0833 75.5613 85.976 75.6127 85.85C75.664 85.724 75.6897 85.5957 75.6897 85.465C75.6897 85.3063 75.6593 85.157 75.5987 85.017C75.5427 84.877 75.4563 84.7627 75.3397 84.674ZM75.4867 86.935C75.398 86.865 75.2883 86.8137 75.1577 86.781C75.027 86.7483 74.8497 86.732 74.6257 86.732H74.1217V88.72H74.7867C75.1227 88.72 75.384 88.6407 75.5707 88.482C75.762 88.3233 75.8577 88.0713 75.8577 87.726C75.8577 87.404 75.734 87.1403 75.4867 86.935ZM78.8663 86.578C79.0809 86.578 79.2676 86.529 79.4263 86.431C79.5849 86.3283 79.7039 86.1977 79.7833 86.039C79.8673 85.8757 79.9093 85.7053 79.9093 85.528C79.9093 85.346 79.8696 85.1757 79.7903 85.017C79.7156 84.8537 79.5989 84.7207 79.4403 84.618C79.2816 84.5153 79.0879 84.464 78.8593 84.464H78.2643V88.356C78.2643 88.5427 78.2876 88.685 78.3343 88.783C78.3809 88.8763 78.4323 88.9393 78.4883 88.972C78.5443 89 78.5723 89.0093 78.5723 89H77.4593C77.4593 89.0093 77.4873 88.9977 77.5433 88.965C77.5993 88.9323 77.6483 88.8693 77.6903 88.776C77.7369 88.6827 77.7603 88.5427 77.7603 88.356V84.856C77.7603 84.6647 77.7369 84.52 77.6903 84.422C77.6483 84.3193 77.5993 84.2517 77.5433 84.219C77.4873 84.1817 77.4593 84.17 77.4593 84.184H78.8453C79.2093 84.184 79.5079 84.2447 79.7413 84.366C79.9793 84.4827 80.1496 84.6367 80.2523 84.828C80.3596 85.0147 80.4133 85.22 80.4133 85.444C80.4133 85.6307 80.3689 85.815 80.2803 85.997C80.1916 86.1743 80.0633 86.3307 79.8953 86.466C79.7319 86.5967 79.5406 86.6877 79.3213 86.739L79.2093 86.76L80.4413 88.328C80.6046 88.51 80.7399 88.65 80.8473 88.748C80.9546 88.846 81.0316 88.9113 81.0783 88.944C81.1296 88.9767 81.1599 88.9953 81.1693 89H80.3503L78.4463 86.578H78.8663ZM82.6821 87.131L82.2341 88.244C82.1641 88.4167 82.1291 88.559 82.1291 88.671C82.1291 88.825 82.1991 88.9347 82.3391 89H81.3381C81.3847 89 81.4524 88.9533 81.5411 88.86C81.6297 88.7667 81.7324 88.5823 81.8491 88.307L83.6761 83.96L85.4891 88.328C85.5917 88.58 85.6897 88.7527 85.7831 88.846C85.8811 88.9393 85.9581 88.9907 86.0141 89H84.8521C84.9687 88.944 85.0271 88.8577 85.0271 88.741C85.0271 88.643 84.9897 88.503 84.9151 88.321L84.4251 87.131H82.6821ZM84.3131 86.844L83.5501 84.975L82.8011 86.844H84.3131ZM88.0264 86.578C88.2411 86.578 88.4277 86.529 88.5864 86.431C88.7451 86.3283 88.8641 86.1977 88.9434 86.039C89.0274 85.8757 89.0694 85.7053 89.0694 85.528C89.0694 85.346 89.0297 85.1757 88.9504 85.017C88.8757 84.8537 88.7591 84.7207 88.6004 84.618C88.4417 84.5153 88.2481 84.464 88.0194 84.464H87.4244V88.356C87.4244 88.5427 87.4477 88.685 87.4944 88.783C87.5411 88.8763 87.5924 88.9393 87.6484 88.972C87.7044 89 87.7324 89.0093 87.7324 89H86.6194C86.6194 89.0093 86.6474 88.9977 86.7034 88.965C86.7594 88.9323 86.8084 88.8693 86.8504 88.776C86.8971 88.6827 86.9204 88.5427 86.9204 88.356V84.856C86.9204 84.6647 86.8971 84.52 86.8504 84.422C86.8084 84.3193 86.7594 84.2517 86.7034 84.219C86.6474 84.1817 86.6194 84.17 86.6194 84.184H88.0054C88.3694 84.184 88.6681 84.2447 88.9014 84.366C89.1394 84.4827 89.3097 84.6367 89.4124 84.828C89.5197 85.0147 89.5734 85.22 89.5734 85.444C89.5734 85.6307 89.5291 85.815 89.4404 85.997C89.3517 86.1743 89.2234 86.3307 89.0554 86.466C88.8921 86.5967 88.7007 86.6877 88.4814 86.739L88.3694 86.76L89.6014 88.328C89.7647 88.51 89.9001 88.65 90.0074 88.748C90.1147 88.846 90.1917 88.9113 90.2384 88.944C90.2897 88.9767 90.3201 88.9953 90.3294 89H89.5104L87.6064 86.578H88.0264ZM94.3845 84.184C94.3379 84.1933 94.2632 84.2447 94.1605 84.338C94.0579 84.4313 93.9342 84.604 93.7895 84.856L92.5785 86.935V88.349C92.5785 88.587 92.6112 88.7527 92.6765 88.846C92.7419 88.9393 92.8025 88.9907 92.8585 89H91.7945C91.8505 88.9907 91.9112 88.9417 91.9765 88.853C92.0419 88.7597 92.0745 88.5917 92.0745 88.349V86.928L90.8775 84.849C90.7375 84.6063 90.6162 84.4407 90.5135 84.352C90.4109 84.2587 90.3292 84.2027 90.2685 84.184H91.4445C91.3279 84.2073 91.2695 84.282 91.2695 84.408C91.2695 84.45 91.2835 84.5013 91.3115 84.562C91.3395 84.618 91.3839 84.6997 91.4445 84.807L92.4595 86.592L93.4745 84.835C93.5539 84.7043 93.5935 84.5713 93.5935 84.436C93.5935 84.3473 93.5655 84.2867 93.5095 84.254C93.4582 84.2167 93.4069 84.1933 93.3555 84.184H94.3845Z" fill="black"/>
<rect x="16" y="12" width="20" height="71" rx="4" fill="#B68D40" stroke="#D6AD60" stroke-width="2"/>
<line x1="17.5" y1="73.5" x2="34.5" y2="73.5" stroke="black" stroke-linecap="round"/>
<line x1="17.5" y1="20.5" x2="34.5" y2="20.5" stroke="black" stroke-linecap="round"/>
<ellipse cx="26" cy="46.5" rx="4" ry="11.5" fill="#D6AD60"/>
<rect x="67.2374" y="14.7635" width="20" height="71" rx="4" transform="rotate(-16.0399 67.2374 14.7635)" fill="#B68D40" stroke="#D6AD60" stroke-width="2"/>
<line x1="85.6718" y1="73.4548" x2="102.01" y2="68.7576" stroke="black" stroke-linecap="round"/>
<line x1="71.0276" y1="22.5181" x2="87.3658" y2="17.8209" stroke="black" stroke-linecap="round"/>
<ellipse cx="86.3806" cy="45.1573" rx="4" ry="11.5" transform="rotate(-16.0399 86.3806 45.1573)" fill="#D6AD60"/>
<rect x="38" y="12" width="20" height="71" rx="4" fill="#B68D40" stroke="#D6AD60" stroke-width="2"/>
<line x1="39.5" y1="73.5" x2="56.5" y2="73.5" stroke="black" stroke-linecap="round"/>
<line x1="39.5" y1="20.5" x2="56.5" y2="20.5" stroke="black" stroke-linecap="round"/>
<ellipse cx="48" cy="46.5" rx="4" ry="11.5" fill="#D6AD60"/>
</svg>
